<?xml version="1.0" encoding="iso-8859-1"?>
<!-- Uploaded to: SVG Repo, www.svgrepo.com, Generator: SVG Repo Mixer Tools -->
<svg version="1.1" id="Layer_1" xmlns="http://www.w3.org/2000/svg"
	xmlns:xlink="http://www.w3.org/1999/xlink"
	viewBox="0 0 508 508" xml:space="preserve">
<circle style="fill:#324A5E;" cx="254" cy="254" r="254"/>
<path style="fill:#FFFFFF;" d="M172.8,420.4v-45.6c0-7.2-5.6-12.8-12.8-12.8h-46V100.4c0-7.2,5.6-12.8,12.8-12.8h254
	c7.2,0,12.8,5.6,12.8,12.8v307.2c0,7.2-5.6,12.8-12.8,12.8H172.8z"/>
<polygon style="fill:#F1543F;" points="308.8,286.8 288.8,286.8 288.8,371.6 308.8,351.6 329.2,371.6 329.2,286.8 "/>
<g>
	<path style="fill:#E6E9EE;" d="M172.8,420.4L114,361.6h45.6c7.2,0,12.8,5.6,12.8,12.8v46H172.8z"/>
	<rect x="139.2" y="120.8" style="fill:#E6E9EE;" width="229.6" height="16.8"/>
	<rect x="139.2" y="158" style="fill:#E6E9EE;" width="229.6" height="16.8"/>
	<rect x="139.2" y="195.2" style="fill:#E6E9EE;" width="229.6" height="16.8"/>
	<rect x="139.2" y="232" style="fill:#E6E9EE;" width="99.2" height="16.8"/>
	<rect x="139.2" y="268.4" style="fill:#E6E9EE;" width="99.2" height="16.8"/>
	<rect x="139.2" y="304.4" style="fill:#E6E9EE;" width="99.2" height="16.8"/>
</g>
<path style="fill:#FF7058;" d="M352.4,282.4L352.4,282.4c2.8-2.8,2.8-6.8,0-9.6l0,0c-2-2-2.4-4.8-1.6-7.2l0,0
	c1.6-3.6-0.4-7.6-3.6-8.8l0,0c-2.4-1.2-4-3.6-4-6.4l0,0c0-3.6-3.2-6.8-6.8-6.8l0,0c-2.8,0-5.2-1.6-6.4-4l0,0
	c-1.6-3.6-5.2-5.2-8.8-3.6l0,0c-2.4,1.2-5.6,0.4-7.2-1.6l0,0c-2.8-2.8-6.8-2.8-9.6,0l0,0c-2,2-4.8,2.4-7.2,1.6l0,0
	c-3.6-1.6-7.6,0.4-8.8,3.6l0,0c-1.2,2.4-3.6,4-6.4,4l0,0c-3.6,0-6.8,3.2-6.8,6.8l0,0c0,2.8-1.6,5.2-4,6.4l0,0
	c-3.6,1.6-5.2,5.2-3.6,8.8l0,0c1.2,2.4,0.4,5.6-1.6,7.2l0,0c-2.8,2.8-2.8,6.8,0,9.6l0,0c2,2,2.4,4.8,1.6,7.2l0,0
	c-1.6,3.6,0.4,7.6,3.6,8.8l0,0c2.4,1.2,4,3.6,4,6.4l0,0c0,3.6,3.2,6.8,6.8,6.8l0,0c2.8,0,5.2,1.6,6.4,4l0,0c1.6,3.6,5.2,5.2,8.8,3.6
	l0,0c2.4-1.2,5.6-0.4,7.2,1.6l0,0c2.8,2.8,6.8,2.8,9.6,0l0,0c2-2,4.8-2.4,7.2-1.6l0,0c3.6,1.6,7.6-0.4,8.8-3.6l0,0
	c1.2-2.4,3.6-4,6.4-4l0,0c3.6,0,6.8-3.2,6.8-6.8l0,0c0-2.8,1.6-5.2,4-6.4l0,0c3.6-1.6,5.2-5.2,3.6-8.8l0,0
	C350,287.2,350.4,284.4,352.4,282.4z"/>
<circle style="fill:#FFD05B;" cx="308.8" cy="277.6" r="34.4"/>
<circle style="fill:#FF7058;" cx="308.8" cy="277.6" r="30"/>
</svg>